<svg width="24" height="19" viewBox="0 0 24 19" fill="none" xmlns="http://www.w3.org/2000/svg">
<path d="M21.5751 0.827515H2.2866C1.31414 0.827515 0.522949 1.61921 0.522949 2.5923V16.8893C0.522949 17.8624 1.31414 18.6541 2.2866 18.6541H21.5751C22.5476 18.6541 23.3388 17.8624 23.3388 16.8893V2.5923C23.3388 1.61921 22.5476 0.827515 21.5751 0.827515ZM7.26501 4.35708H22.6691V12.6225H7.26501V4.35708ZM2.2866 1.49769H21.5751C22.1783 1.49769 22.6691 1.98874 22.6691 2.5923V3.68691H1.19269V2.5923C1.19269 1.98874 1.68343 1.49769 2.2866 1.49769ZM1.19269 16.8893V4.35708H6.59527V17.9839H2.2866C1.68343 17.9839 1.19269 17.4928 1.19269 16.8893ZM21.5751 17.9839H7.26501V13.2927H22.6691V16.8893C22.6691 17.4928 22.1783 17.9839 21.5751 17.9839Z" fill="#8D5DA7"/>
</svg>
